<svg width="20" height="20" viewBox="0 0 20 20" fill="none" xmlns="http://www.w3.org/2000/svg">
<path d="M4.4231 18.657C4.00216 18.657 3.64585 18.5111 3.35419 18.2195C3.06252 17.9278 2.91669 17.5715 2.91669 17.1506V5.99677C2.91669 5.57582 3.06252 5.21952 3.35419 4.92785C3.64585 4.63618 4.00216 4.49035 4.4231 4.49035H5.57696V3.36854C5.57696 3.18586 5.63812 3.03335 5.76046 2.91102C5.88278 2.7887 6.03528 2.72754 6.21798 2.72754C6.40066 2.72754 6.55317 2.7887 6.6755 2.91102C6.79782 3.03335 6.85898 3.18586 6.85898 3.36854V4.49035H13.1731V3.35252C13.1731 3.17517 13.2329 3.02667 13.3525 2.90702C13.4722 2.78737 13.6207 2.72754 13.798 2.72754C13.9754 2.72754 14.1239 2.78737 14.2435 2.90702C14.3632 3.02667 14.423 3.17517 14.423 3.35252V4.49035H15.5769C15.9978 4.49035 16.3541 4.63618 16.6458 4.92785C16.9375 5.21952 17.0833 5.57582 17.0833 5.99677V17.1506C17.0833 17.5715 16.9375 17.9278 16.6458 18.2195C16.3541 18.5111 15.9978 18.657 15.5769 18.657H4.4231ZM4.4231 17.407H15.5769C15.641 17.407 15.6998 17.3803 15.7532 17.3269C15.8066 17.2734 15.8333 17.2147 15.8333 17.1506V9.3301H4.16667V17.1506C4.16667 17.2147 4.19337 17.2734 4.24679 17.3269C4.30022 17.3803 4.35899 17.407 4.4231 17.407ZM4.16667 8.08012H15.8333V5.99677C15.8333 5.93266 15.8066 5.87389 15.7532 5.82046C15.6998 5.76704 15.641 5.74033 15.5769 5.74033H4.4231C4.35899 5.74033 4.30022 5.76704 4.24679 5.82046C4.19337 5.87389 4.16667 5.93266 4.16667 5.99677V8.08012Z" fill="#9FA6B2"/>
</svg>
