<svg width="18" height="18" viewBox="0 0 18 18" fill="none" xmlns="http://www.w3.org/2000/svg">
<path d="M7.58222 10.4221H1.42191C1.02289 10.4221 0.686146 10.2848 0.411687 10.0104C0.137229 9.73592 0 9.39919 0 9.00019C0 8.60119 0.137229 8.26446 0.411687 7.99C0.686146 7.71554 1.02289 7.57831 1.42191 7.57831H7.58222V1.418C7.58222 1.01898 7.71945 0.68224 7.99391 0.407782C8.26837 0.133323 8.60509 -0.00390625 9.00409 -0.00390625C9.40309 -0.00390625 9.73982 0.133323 10.0143 0.407782C10.2887 0.68224 10.426 1.01898 10.426 1.418V7.57831H16.5863C16.9853 7.57831 17.322 7.71554 17.5965 7.99C17.871 8.26446 18.0082 8.60119 18.0082 9.00019C18.0082 9.39919 17.871 9.73592 17.5965 10.0104C17.322 10.2848 16.9853 10.4221 16.5863 10.4221H10.426V16.5824C10.426 16.9814 10.2887 17.3181 10.0143 17.5926C9.73982 17.8671 9.40309 18.0043 9.00409 18.0043C8.60509 18.0043 8.26837 17.8671 7.99391 17.5926C7.71945 17.3181 7.58222 16.9814 7.58222 16.5824V10.4221Z" fill="#5534DA"/>
</svg>
