<svg width="12" height="12" viewBox="0 0 12 12" fill="none" xmlns="http://www.w3.org/2000/svg">
<path d="M5.49968 6.56702V8.73371C5.49968 8.87559 5.54754 8.99439 5.64326 9.09011C5.73898 9.18583 5.85778 9.23369 5.99966 9.23369C6.14154 9.23369 6.26034 9.18583 6.35606 9.09011C6.45178 8.99439 6.49964 8.87559 6.49964 8.73371V6.56702H8.66633C8.8082 6.56702 8.927 6.51916 9.02272 6.42344C9.11845 6.32772 9.16631 6.20892 9.16631 6.06704C9.16631 5.92516 9.11845 5.80636 9.02272 5.71064C8.927 5.61492 8.8082 5.56706 8.66633 5.56706H6.49964V3.40037C6.49964 3.2585 6.45178 3.1397 6.35606 3.04398C6.26034 2.94825 6.14154 2.90039 5.99966 2.90039C5.85778 2.90039 5.73898 2.94825 5.64326 3.04398C5.54754 3.1397 5.49968 3.2585 5.49968 3.40037V5.56706H3.33299C3.19111 5.56706 3.07231 5.61492 2.97659 5.71064C2.88087 5.80636 2.83301 5.92516 2.83301 6.06704C2.83301 6.20892 2.88087 6.32772 2.97659 6.42344C3.07231 6.51916 3.19111 6.56702 3.33299 6.56702H5.49968ZM1.53814 11.7337C1.20139 11.7337 0.916341 11.617 0.683008 11.3837C0.449674 11.1504 0.333008 10.8653 0.333008 10.5286V1.60552C0.333008 1.26877 0.449674 0.983724 0.683008 0.750391C0.916341 0.517057 1.20139 0.400391 1.53814 0.400391H10.4612C10.7979 0.400391 11.083 0.517057 11.3163 0.750391C11.5496 0.983724 11.6663 1.26877 11.6663 1.60552V10.5286C11.6663 10.8653 11.5496 11.1504 11.3163 11.3837C11.083 11.617 10.7979 11.7337 10.4612 11.7337H1.53814ZM1.53814 10.7337H10.4612C10.5125 10.7337 10.5595 10.7123 10.6022 10.6696C10.645 10.6269 10.6663 10.5798 10.6663 10.5286V1.60552C10.6663 1.55424 10.645 1.50722 10.6022 1.46447C10.5595 1.42174 10.5125 1.40037 10.4612 1.40037H1.53814C1.48685 1.40037 1.43984 1.42174 1.39709 1.46447C1.35436 1.50722 1.33299 1.55424 1.33299 1.60552V10.5286C1.33299 10.5798 1.35436 10.6269 1.39709 10.6696C1.43984 10.7123 1.48685 10.7337 1.53814 10.7337Z" fill="white"/>
</svg>
