<svg width="200" height="56" viewBox="0 0 200 56" fill="none" xmlns="http://www.w3.org/2000/svg">
<path d="M13.2728 44.2195V12.5251H0.796875V5.15953H34.7716V12.5251H22.2956V44.2195H13.2728Z" fill="#5534DA"/>
<path d="M54.6046 44.2195V38.3605L54.0476 37.0771V26.5867C54.0476 24.7267 53.4721 23.2759 52.321 22.2343C51.2071 21.1927 49.4805 20.6719 47.1413 20.6719C45.5447 20.6719 43.9666 20.9323 42.4071 21.4531C40.8848 21.9367 39.5852 22.6063 38.5084 23.4619L35.3894 17.3797C37.0232 16.2265 38.9911 15.3337 41.2932 14.7013C43.5953 14.0689 45.9345 13.7527 48.3109 13.7527C52.878 13.7527 56.424 14.8315 58.9489 16.9891C61.4738 19.1467 62.7362 22.5133 62.7362 27.0889V44.2195H54.6046ZM45.4704 44.6659C43.1312 44.6659 41.1261 44.2753 39.4552 43.4941C37.7843 42.6757 36.5033 41.5783 35.6122 40.2019C34.721 38.8255 34.2755 37.2817 34.2755 35.5705C34.2755 33.7849 34.7025 32.2225 35.5565 30.8833C36.4476 29.5441 37.84 28.5025 39.7337 27.7585C41.6274 26.9773 44.0966 26.5867 47.1413 26.5867H55.1059V31.6645H48.0881C46.0459 31.6645 44.635 31.9993 43.8552 32.6689C43.1126 33.3385 42.7413 34.1755 42.7413 35.1799C42.7413 36.2959 43.1683 37.1887 44.0223 37.8583C44.9134 38.4907 46.1202 38.8069 47.6426 38.8069C49.0907 38.8069 50.3902 38.4721 51.5413 37.8025C52.6924 37.0957 53.5278 36.0727 54.0476 34.7335L55.3843 38.7511C54.7531 40.6855 53.6021 42.1549 51.9312 43.1593C50.2603 44.1637 48.1067 44.6659 45.4704 44.6659Z" fill="#5534DA"/>
<path d="M79.415 44.6659C76.853 44.6659 74.3838 44.3683 72.0074 43.7731C69.6682 43.1407 67.8117 42.3595 66.4378 41.4295L69.334 35.1799C70.7079 36.0355 72.3231 36.7423 74.1796 37.3003C76.0733 37.8211 77.9298 38.0815 79.7492 38.0815C81.7543 38.0815 83.1652 37.8397 83.9821 37.3561C84.8361 36.8725 85.2631 36.2029 85.2631 35.3473C85.2631 34.6405 84.9289 34.1197 84.2606 33.7849C83.6294 33.4129 82.7754 33.1339 81.6986 32.9479C80.6218 32.7619 79.4336 32.5759 78.134 32.3899C76.8716 32.2039 75.5906 31.9621 74.291 31.6645C72.9914 31.3297 71.8032 30.8461 70.7264 30.2137C69.6496 29.5813 68.7771 28.7257 68.1087 27.6469C67.4775 26.5681 67.1619 25.1731 67.1619 23.4619C67.1619 21.5647 67.7003 19.8907 68.7771 18.4399C69.891 16.9891 71.4876 15.8545 73.5669 15.0361C75.6463 14.1805 78.134 13.7527 81.0302 13.7527C83.0724 13.7527 85.1517 13.9759 87.2682 14.4223C89.3846 14.8687 91.1484 15.5197 92.5593 16.3753L89.6631 22.5691C88.215 21.7135 86.7484 21.1369 85.2631 20.8393C83.815 20.5045 82.4041 20.3371 81.0302 20.3371C79.0994 20.3371 77.6884 20.5975 76.7973 21.1183C75.9062 21.6391 75.4606 22.3087 75.4606 23.1271C75.4606 23.8711 75.7762 24.4291 76.4074 24.8011C77.0758 25.1731 77.9484 25.4707 79.0252 25.6939C80.102 25.9171 81.2716 26.1217 82.534 26.3077C83.8336 26.4565 85.1332 26.6983 86.4328 27.0331C87.7323 27.3679 88.9019 27.8515 89.9416 28.4839C91.0184 29.0791 91.891 29.9161 92.5593 30.9949C93.2277 32.0365 93.5619 33.4129 93.5619 35.1241C93.5619 36.9841 93.0049 38.6395 91.891 40.0903C90.7771 41.5039 89.1619 42.6199 87.0454 43.4383C84.9661 44.2567 82.4226 44.6659 79.415 44.6659Z" fill="#5534DA"/>
<path d="M104.842 38.0815L105.064 27.4795L119.044 14.1991H129.404L115.981 27.8701L111.469 31.5529L104.842 38.0815ZM97.6568 44.2195V2.81593H106.345V44.2195H97.6568ZM119.991 44.2195L109.854 31.6087L115.312 24.8569L130.518 44.2195H119.991Z" fill="#5534DA"/>
<path d="M133.159 44.2195V14.1991H141.848V44.2195H133.159ZM137.503 10.0141C135.907 10.0141 134.607 9.54913 133.605 8.61913C132.602 7.68913 132.101 6.53593 132.101 5.15953C132.101 3.78313 132.602 2.62993 133.605 1.69993C134.607 0.769933 135.907 0.304932 137.503 0.304932C139.1 0.304932 140.4 0.751332 141.402 1.64413C142.405 2.49973 142.906 3.61573 142.906 4.99213C142.906 6.44293 142.405 7.65193 141.402 8.61913C140.437 9.54913 139.137 10.0141 137.503 10.0141Z" fill="#5534DA"/>
<path d="M149.704 44.2195V13.5295C149.704 10.1443 150.706 7.44733 152.712 5.43853C154.717 3.39253 157.576 2.36953 161.289 2.36953C162.551 2.36953 163.758 2.49973 164.909 2.76013C166.097 3.02053 167.1 3.42973 167.917 3.98773L165.633 10.2931C165.15 9.95833 164.612 9.69793 164.018 9.51193C163.424 9.32593 162.793 9.23293 162.124 9.23293C160.862 9.23293 159.878 9.60493 159.172 10.3489C158.504 11.0557 158.17 12.1345 158.17 13.5853V16.3753L158.393 20.1139V44.2195H149.704ZM145.081 21.5647V14.8687H165.856V21.5647H145.081Z" fill="#5534DA"/>
<path d="M173.25 55.4911C171.69 55.4911 170.149 55.2493 168.627 54.7657C167.105 54.2821 165.861 53.6125 164.895 52.7569L168.07 46.5631C168.739 47.1583 169.5 47.6233 170.354 47.9581C171.245 48.2929 172.117 48.4603 172.971 48.4603C174.197 48.4603 175.162 48.1627 175.868 47.5675C176.61 47.0095 177.279 46.0609 177.873 44.7217L179.432 41.0389L180.101 40.0903L190.85 14.1991H199.204L185.67 46.0609C184.705 48.4789 183.591 50.3761 182.328 51.7525C181.103 53.1289 179.729 54.0961 178.207 54.6541C176.722 55.2121 175.069 55.4911 173.25 55.4911ZM178.374 45.3913L165.007 14.1991H173.974L184.333 39.3091L178.374 45.3913Z" fill="#5534DA"/>
</svg>
