<svg width="254" height="70" viewBox="0 0 254 70" fill="none" xmlns="http://www.w3.org/2000/svg">
<path d="M16.1582 55.5V15.74H0.478242V6.5H43.1782V15.74H27.4982V55.5H16.1582ZM68.6957 55.5V48.15L67.9957 46.54V33.38C67.9957 31.0467 67.2723 29.2267 65.8257 27.92C64.4257 26.6133 62.2557 25.96 59.3157 25.96C57.309 25.96 55.3257 26.2867 53.3657 26.94C51.4523 27.5467 49.819 28.3867 48.4657 29.46L44.5457 21.83C46.599 20.3833 49.0723 19.2633 51.9657 18.47C54.859 17.6767 57.799 17.28 60.7857 17.28C66.5257 17.28 70.9823 18.6333 74.1557 21.34C77.329 24.0467 78.9157 28.27 78.9157 34.01V55.5H68.6957ZM57.2157 56.06C54.2757 56.06 51.7557 55.57 49.6557 54.59C47.5557 53.5633 45.9457 52.1867 44.8257 50.46C43.7057 48.7333 43.1457 46.7967 43.1457 44.65C43.1457 42.41 43.6823 40.45 44.7557 38.77C45.8757 37.09 47.6257 35.7833 50.0057 34.85C52.3857 33.87 55.489 33.38 59.3157 33.38H69.3257V39.75H60.5057C57.939 39.75 56.1657 40.17 55.1857 41.01C54.2523 41.85 53.7857 42.9 53.7857 44.16C53.7857 45.56 54.3223 46.68 55.3957 47.52C56.5157 48.3133 58.0323 48.71 59.9457 48.71C61.7657 48.71 63.399 48.29 64.8457 47.45C66.2923 46.5633 67.3423 45.28 67.9957 43.6L69.6757 48.64C68.8823 51.0667 67.4357 52.91 65.3357 54.17C63.2357 55.43 60.529 56.06 57.2157 56.06ZM100.469 56.06C97.2488 56.06 94.1455 55.6867 91.1588 54.94C88.2188 54.1467 85.8855 53.1667 84.1588 52L87.7988 44.16C89.5255 45.2333 91.5555 46.12 93.8888 46.82C96.2688 47.4733 98.6021 47.8 100.889 47.8C103.409 47.8 105.182 47.4967 106.209 46.89C107.282 46.2833 107.819 45.4433 107.819 44.37C107.819 43.4833 107.399 42.83 106.559 42.41C105.765 41.9433 104.692 41.5933 103.339 41.36C101.985 41.1267 100.492 40.8933 98.8588 40.66C97.2721 40.4267 95.6621 40.1233 94.0288 39.75C92.3955 39.33 90.9021 38.7233 89.5488 37.93C88.1955 37.1367 87.0988 36.0633 86.2588 34.71C85.4655 33.3567 85.0688 31.6067 85.0688 29.46C85.0688 27.08 85.7455 24.98 87.0988 23.16C88.4988 21.34 90.5055 19.9167 93.1188 18.89C95.7321 17.8167 98.8588 17.28 102.499 17.28C105.065 17.28 107.679 17.56 110.339 18.12C112.999 18.68 115.215 19.4967 116.989 20.57L113.349 28.34C111.529 27.2667 109.685 26.5433 107.819 26.17C105.999 25.75 104.225 25.54 102.499 25.54C100.072 25.54 98.2988 25.8667 97.1788 26.52C96.0588 27.1733 95.4988 28.0133 95.4988 29.04C95.4988 29.9733 95.8955 30.6733 96.6888 31.14C97.5288 31.6067 98.6255 31.98 99.9788 32.26C101.332 32.54 102.802 32.7967 104.389 33.03C106.022 33.2167 107.655 33.52 109.289 33.94C110.922 34.36 112.392 34.9667 113.699 35.76C115.052 36.5067 116.149 37.5567 116.989 38.91C117.829 40.2167 118.249 41.9433 118.249 44.09C118.249 46.4233 117.549 48.5 116.149 50.32C114.749 52.0933 112.719 53.4933 110.059 54.52C107.445 55.5467 104.249 56.06 100.469 56.06ZM133.016 47.8L133.296 34.5L150.866 17.84H163.886L147.016 34.99L141.346 39.61L133.016 47.8ZM123.986 55.5V3.56H134.906V55.5H123.986ZM152.056 55.5L139.316 39.68L146.176 31.21L165.286 55.5H152.056ZM169.197 55.5V17.84H180.117V55.5H169.197ZM174.657 12.59C172.651 12.59 171.017 12.0067 169.757 10.84C168.497 9.67333 167.867 8.22666 167.867 6.5C167.867 4.77333 168.497 3.32666 169.757 2.16C171.017 0.99333 172.651 0.409996 174.657 0.409996C176.664 0.409996 178.297 0.969997 179.557 2.09C180.817 3.16333 181.447 4.56333 181.447 6.29C181.447 8.11 180.817 9.62666 179.557 10.84C178.344 12.0067 176.711 12.59 174.657 12.59ZM190.582 55.5V17C190.582 12.7533 191.842 9.37 194.362 6.85C196.882 4.28333 200.475 3 205.142 3C206.729 3 208.245 3.16333 209.692 3.49C211.185 3.81666 212.445 4.33 213.472 5.03L210.602 12.94C209.995 12.52 209.319 12.1933 208.572 11.96C207.825 11.7267 207.032 11.61 206.192 11.61C204.605 11.61 203.369 12.0767 202.482 13.01C201.642 13.8967 201.222 15.25 201.222 17.07V20.57L201.502 25.26V55.5H190.582ZM184.772 27.08V18.68H210.882V27.08H184.772ZM220.766 69.64C218.806 69.64 216.869 69.3367 214.956 68.73C213.042 68.1233 211.479 67.2833 210.266 66.21L214.256 58.44C215.096 59.1867 216.052 59.77 217.126 60.19C218.246 60.61 219.342 60.82 220.416 60.82C221.956 60.82 223.169 60.4467 224.056 59.7C224.989 59 225.829 57.81 226.576 56.13L228.536 51.51L229.376 50.32L242.886 17.84H253.386L236.376 57.81C235.162 60.8433 233.762 63.2233 232.176 64.95C230.636 66.6767 228.909 67.89 226.996 68.59C225.129 69.29 223.052 69.64 220.766 69.64ZM227.206 56.97L210.406 17.84H221.676L234.696 49.34L227.206 56.97Z" fill="#5534DA"/>
</svg>
