<svg width="29" height="34" viewBox="0 0 29 34" fill="none" xmlns="http://www.w3.org/2000/svg">
<g clip-path="url(#clip0_494_4220)">
<path d="M28.9945 3.03225C28.9812 3.00574 28.9502 2.98806 28.9191 2.9969C28.6489 3.1118 28.3786 3.20902 28.0995 3.31066C27.3331 3.59349 26.5356 3.7791 25.7381 3.9647C24.8255 4.16798 23.8951 4.31382 22.9869 4.5392C22.2027 4.72922 21.4229 4.95902 20.6698 5.25953C20.1027 5.48048 19.5445 5.71912 19.0217 6.02404C18.4014 6.36432 17.9008 6.87253 17.4134 7.37632C16.966 7.84475 16.5141 8.31319 16.1198 8.83023C15.8983 9.1219 15.7122 9.44008 15.535 9.75826C15.8141 8.70649 16.204 7.64589 16.9172 6.80624C16.9704 6.73995 16.9084 6.66041 16.8331 6.69576C16.6514 6.78415 16.4831 6.89905 16.3103 7.00511C14.99 7.89778 13.8115 9.007 12.797 10.2311C12.3008 10.8365 11.8223 11.4552 11.428 12.1314C10.9717 12.9224 10.6261 13.7753 10.378 14.6547C10.3514 14.1333 10.3957 13.6118 10.4666 13.0948C10.4799 13.0019 10.4932 12.9136 10.4976 12.8208C10.4976 12.7589 10.5153 12.6705 10.4533 12.6352C10.409 12.6131 10.3647 12.6352 10.3337 12.6705C10.2938 12.7103 10.2628 12.7545 10.2274 12.7987C10.1565 12.8915 10.0856 12.9887 10.0191 13.0859C9.79762 13.3997 9.59825 13.7311 9.42547 14.0758C9.00015 14.9464 8.61028 15.8258 8.21598 16.7097C7.81724 17.5935 7.44952 18.495 7.06408 19.3833C6.69636 20.2229 6.29319 21.0493 5.87674 21.8668C5.65079 22.3043 5.42041 22.7418 5.15015 23.1573C5.03496 23.334 4.91534 23.5064 4.79129 23.6743C4.80901 23.6389 4.82674 23.608 4.84446 23.5727C5.20775 22.8612 5.45585 22.1011 5.6818 21.3365C5.86787 20.846 6.05395 20.3555 6.26218 19.8782C6.50585 19.3347 6.72294 18.7823 6.93117 18.2254C7.34762 17.1737 7.85268 16.1661 8.42863 15.1894C8.80079 14.5575 9.19952 13.9388 9.56281 13.298C9.90395 12.697 10.1742 12.0607 10.4843 11.4464C10.7147 10.9868 10.9495 10.5272 11.1489 10.0543C11.2065 9.92177 11.2641 9.78478 11.3172 9.64778C11.3394 9.58149 11.366 9.51079 11.3793 9.44008C11.3793 9.41356 11.3837 9.38263 11.366 9.35612C11.3261 9.29425 11.2464 9.31634 11.1976 9.35612C11.0558 9.46218 10.9229 9.57266 10.7856 9.68756C10.3426 10.0632 9.8818 10.4167 9.40775 10.7526C10.4223 9.52404 11.5033 8.26899 11.9907 6.72228C12.0261 6.5897 12.1236 6.25826 12.0261 6.14778C11.9596 6.09033 11.8843 6.16988 11.8445 6.21849C11.4324 6.73112 10.9983 7.22606 10.5153 7.6724C10.7014 7.38074 10.8786 7.08023 11.0381 6.77089C11.304 6.24059 11.5653 5.70586 11.7824 5.15346C12.0394 4.47733 12.2343 3.78351 12.4381 3.09412C12.6464 2.34286 12.8324 1.58276 13.0584 0.835914C13.0805 0.765207 13.1027 0.6945 13.116 0.619374C13.116 0.597278 13.1248 0.570762 13.116 0.548666C13.1027 0.508894 13.054 0.482379 13.0141 0.495636C12.9786 0.504475 12.9432 0.526571 12.9122 0.553086C12.4603 0.977328 12.0571 1.45018 11.6229 1.88768C11.304 2.2147 10.9805 2.54614 10.6748 2.88642C10.059 3.58465 9.50965 4.34475 9.07547 5.16672C8.68117 5.91357 8.39319 6.72228 8.21598 7.54867C7.97674 8.62695 7.89699 9.73175 7.74636 10.8233C7.57357 10.3504 7.47167 9.85106 7.44952 9.34286C7.44066 9.17493 7.4318 8.99816 7.42294 8.81697C7.42294 8.73301 7.42294 8.55182 7.29446 8.59159C7.25458 8.61369 7.23243 8.65788 7.21028 8.70208C7.17041 8.78162 7.13496 8.86559 7.09952 8.94955C6.98876 9.20586 6.86471 9.45334 6.74952 9.70523C6.42167 10.4123 6.13813 11.1459 5.99193 11.9104C5.86344 12.5379 5.79699 13.1787 5.79699 13.8151C5.79699 14.7078 5.93433 15.5872 5.9299 16.4843C5.68623 16.091 5.43813 15.6932 5.33623 15.2336C5.28306 15.0171 5.24319 14.8006 5.20775 14.584C5.19889 14.5222 5.1856 14.4559 5.17674 14.394C5.16787 14.3498 5.16787 14.2924 5.13243 14.2614C5.05268 14.1995 4.99952 14.3056 4.9818 14.3719C4.83117 14.8492 4.75585 15.353 4.73813 15.8567C4.71598 16.365 4.76471 16.8732 4.81344 17.3814C4.85775 17.841 4.90648 18.3006 4.93749 18.7646C4.91534 18.9325 4.90648 19.1004 4.89319 19.2684C4.84003 20.0948 4.74699 20.9211 4.58749 21.7343C4.48117 22.3883 4.34382 23.0335 4.11344 23.661C3.98053 24.1074 3.80775 24.5405 3.59066 24.9514C3.55522 25.0089 3.5242 25.0708 3.49319 25.1282C3.06344 25.8927 2.66914 26.6749 2.23496 27.435C1.97357 27.8814 1.72104 28.3365 1.48623 28.8006C1.31344 29.1011 1.15395 29.406 1.01661 29.7198C0.896989 29.9849 0.781799 30.2545 0.67547 30.524C0.635596 30.6389 0.520407 30.8687 0.582432 30.9836C0.67547 31.0676 0.750786 30.9571 0.808381 30.8378C0.821672 30.8246 0.834964 30.8113 0.843824 30.798C0.879267 30.7494 0.91028 30.7008 0.936862 30.6478C1.00775 30.5285 1.07863 30.4136 1.14509 30.2987C1.4375 29.7905 1.72104 29.2778 2.00901 28.7652C2.43876 27.9698 2.90838 27.1964 3.38243 26.423C3.46218 26.2949 3.5375 26.1667 3.61724 26.0341C3.71471 25.8927 3.81218 25.7557 3.91408 25.6143C4.09572 25.3668 4.29066 25.1282 4.50332 24.9073C4.76471 24.62 5.09256 24.3416 5.39825 24.0985C5.84129 23.7406 6.24003 23.334 6.6299 22.923C7.53813 21.9376 8.39319 20.9035 9.27927 19.8959C9.86851 19.1888 10.5021 18.5083 11.1799 17.8896C11.6805 17.4698 12.1989 17.0676 12.7261 16.6831C13.5679 16.0821 14.454 15.5474 15.2913 14.9376C16.2793 14.2172 17.2451 13.466 18.1312 12.6219C18.1577 12.591 18.1888 12.5556 18.171 12.5114C18.1533 12.454 18.0824 12.4628 18.0337 12.4761C17.8343 12.5291 17.6438 12.6086 17.4489 12.6573C17.2495 12.7014 17.0457 12.7412 16.8464 12.7766C16.3014 12.8826 15.7432 12.9268 15.1894 12.9312C15.504 12.8119 15.8229 12.697 16.1419 12.591C16.935 12.3523 17.7369 12.149 18.5122 11.8574C19.89 11.3845 21.0951 10.536 22.1983 9.60359C22.4685 9.37821 22.7432 9.15283 22.9913 8.90094C23.0356 8.84791 23.1021 8.7993 23.1109 8.72417C23.1109 8.63579 23.0046 8.63579 22.9381 8.65346C22.3179 8.78604 21.6932 8.9142 21.0641 8.98048C20.6476 9.02026 20.2134 9.05119 19.797 8.97606C20.2799 8.83023 20.7672 8.70208 21.2634 8.60043C21.7242 8.50763 22.1894 8.41925 22.6369 8.28225C23.3324 8.07897 23.9571 7.68124 24.4888 7.19513C24.8077 6.89021 25.1046 6.56319 25.397 6.23175C25.7071 5.87821 25.9862 5.49816 26.3141 5.15788C26.7438 4.70713 27.2134 4.29614 27.7141 3.92935C28.0862 3.63768 28.485 3.39021 28.897 3.15599C28.928 3.13831 28.959 3.12947 28.99 3.1118C29.0166 3.09412 29.0255 3.06319 29.0122 3.03225H28.9945ZM4.78243 24.0278C4.78243 24.0278 4.78243 24.0278 4.77357 24.0278H4.778H4.78243ZM5.84129 19.2772C6.18243 18.1636 6.51028 17.0455 6.86471 15.9363C7.19699 14.8006 7.52927 13.6648 7.87927 12.5379C8.26914 11.2033 8.57927 9.84665 8.99129 8.51647C9.2837 7.5796 9.61155 6.65157 9.97927 5.74122C10.3115 4.91925 10.6837 4.11054 11.1888 3.37695C10.7767 4.35359 10.3514 5.32139 9.99256 6.31571C9.64699 7.18629 9.35458 8.07455 9.10205 8.97606C8.48623 10.9691 8.11408 13.0285 7.52041 15.0259C7.26788 15.9098 6.98433 16.7848 6.67863 17.6554C6.46155 18.2785 6.20458 18.9016 5.99193 19.5247C5.51787 20.9079 5.07927 22.3043 4.53876 23.6655C4.5299 23.6743 4.52104 23.6831 4.51218 23.692C4.49446 23.6876 4.47674 23.692 4.46344 23.6964C4.55648 23.4047 4.64509 23.1086 4.72041 22.8126C5.07927 21.6282 5.47357 20.4571 5.84129 19.2772ZM19.159 8.41483C18.6451 8.76836 18.1312 9.1219 17.6438 9.50637C16.8331 10.1516 16.0445 10.8189 15.2603 11.495C14.804 11.9016 14.3919 12.3567 13.9622 12.7942C13.5369 13.2362 13.1071 13.6692 12.704 14.1288C12.1679 14.7254 11.6185 15.3132 11.1046 15.9319C10.6527 16.4622 10.2407 17.0278 9.83307 17.5935C9.5318 17.9956 9.2261 18.3978 8.94256 18.8132C8.60585 19.2949 8.25585 19.7633 7.91914 20.245C7.58243 20.7311 7.25015 21.2172 6.92231 21.7078C6.71408 22.0171 6.50585 22.3309 6.26218 22.6181C5.9742 22.9584 5.67737 23.3163 5.34952 23.6301C5.22547 23.7406 5.10585 23.8511 4.98623 23.966C4.98623 23.966 4.98623 23.966 4.9818 23.966C4.9242 23.9527 4.9242 23.8997 4.93749 23.8555C5.17231 23.5948 5.40712 23.3384 5.6375 23.0733C5.91661 22.7507 6.16914 22.406 6.40395 22.0525C7.65332 20.2317 8.91598 18.4155 10.2584 16.6566C10.759 16.007 11.2774 15.3662 11.8356 14.7652C12.797 13.7488 13.7894 12.7677 14.7818 11.7778C16.0622 10.5051 17.4267 9.31192 18.9109 8.28225C20.0938 7.4868 21.3521 6.80624 22.6502 6.21849C21.4362 6.86811 20.3021 7.65915 19.159 8.41925V8.41483Z" fill="#5534DA"/>
<path d="M20.2493 30.7759C20.2138 30.851 20.1651 30.9173 20.1119 30.9792C19.5537 31.5581 18.7296 31.8586 17.9499 32.0132C17.1613 32.1768 16.3505 32.0265 15.5796 31.8542C16.3461 31.2222 17.2056 30.4842 17.3784 29.4545C17.5467 28.2216 16.3815 27.4217 15.2607 27.3687C11.5126 27.2449 8.12774 29.2733 4.95116 31.0278C3.7461 31.6862 2.40369 32.5303 0.972677 32.1989C0.77331 32.1414 0.569513 32.0132 0.507487 31.8011C0.511918 31.7437 0.485336 31.6774 0.427741 31.6509C-0.0152974 31.5625 0.29926 32.1856 0.503057 32.2961C2.26192 33.2992 4.70749 31.4388 6.26255 30.6345C7.86635 29.7595 9.52331 28.8756 11.2689 28.3055C12.7176 27.8769 14.4322 27.3996 15.9252 27.8018C16.6872 28.0227 17.2809 28.8182 17.0372 29.6136C16.7315 30.5328 15.9385 31.1824 15.1986 31.7569C14.0334 31.4785 12.8239 31.1736 11.6189 31.346C10.9543 31.4653 10.1879 31.6995 9.85559 32.3358C9.33724 33.3788 10.6353 33.5821 11.3885 33.56C12.8018 33.5158 14.1486 32.9369 15.2651 32.084C16.5322 32.4154 17.786 32.5391 19.022 32.0177C19.5803 31.7614 20.2138 31.4785 20.5151 30.9084C20.6081 30.7361 20.3334 30.5947 20.2448 30.767L20.2493 30.7759ZM11.3486 33.2639C10.941 33.2329 10.2233 33.2904 10.0505 32.8352C10.0239 32.2607 10.6619 31.9249 11.1404 31.779C12.3676 31.4078 13.6613 31.7172 14.8752 32C13.8518 32.7468 12.6246 33.2285 11.3486 33.2639Z" fill="#5534DA"/>
</g>
<defs>
<clipPath id="clip0_494_4220">
<rect width="28.7975" height="33.0688" fill="white" transform="translate(0.202148 0.5)"/>
</clipPath>
</defs>
</svg>
